<svg class="icon inline h-4 w-4 mx-6 my-4" xmlns="http://www.w3.org/2000/svg" viewBox="0 0 40 40" data-v-44c94206=""><!----><g class="pointer-events-none" fill="black" data-v-44c94206=""><g data-v-44c94206=""><path d="M38.82,39.72a1.2,1.2,0,0,1-.82-.34L.35,2.3A1.18,1.18,0,0,1,2,.62L39.65,37.7a1.17,1.17,0,0,1,0,1.66A1.15,1.15,0,0,1,38.82,39.72Z"></path><path d="M1.47,40a1.16,1.16,0,0,1-.83-.34A1.18,1.18,0,0,1,.63,38L37.69.35A1.18,1.18,0,0,1,39.37,2L2.31,39.65A1.2,1.2,0,0,1,1.47,40Z"></path></g></g></svg>