<svg class="pl-2 h-20 w-20 m-auto mt-8" xmlns="http://www.w3.org/2000/svg" viewBox="0 0 240.55 283.19" data-v-6046ec97=""><path id="Strunk_Rechts" class="cls-1" d="M123.15,76.93C136.5,58.6,137.8,55.65,146,43.17c3.85-5.89-8.5-13.25-11.9-14.2-2.35-.66-5.84-.57-7.19,5.22-1.48,6.36-8.7,32.81-9.49,39.91C116.74,79.85,120.1,81.12,123.15,76.93Z" data-v-6046ec97=""></path><path id="Strunk_Mitte" class="cls-1" d="M121.26,20.58C119.48,31.63,111,83.69,108.41,97.85s-6.08,19.28-9.34,17.8c-2.59-1.18-2.85-7.59-2.76-12.87.28-16.09-.15-59.6-4-82.07C90.64,11.29,88.51,2.54,96.1.41c6.59-1.85,16.74,2.94,20.57,5.76C121.12,9.45,122.31,14.07,121.26,20.58Z" data-v-6046ec97=""></path><path id="Bildmarke-3" data-name="Bildmarke" class="cls-1" d="M230,127.13c-5.59,1.85-18.83,4.93-22.77,6-.22.06-2.1.65-1.83,2.26.21,1.21,2.79,1.22,4.8.72,4.44-1.08,16-3.53,21.48-4.36,2.29-.34,5-1,7.16-.36,1.32.39,2.45,1.87,1,3.23s-6.41,3.14-8.66,3.89c-5.07,1.67-20.25,6.1-20.44,6.14-8.63,1.92-15.89-.39-20.7-1.87-7.15-2.2-14.11-.54-19.2.27-7.71,19.17-12.57,32.23-15.2,41.16-3.59,12.08-6.72,23.68-9.48,33.91-10.47,38.77-16.44,64.46-33.95,65.07-22.17.77-47.68-43.4-64.38-84.5-4.26-10.48-9.25-23.56-12.5-33.57a62.06,62.06,0,0,1-16.59,2c-7.2,0-15.27-1.1-17.62-3.21A3.46,3.46,0,0,1,0,161.19c0-2,2.36-3.72,7.38-6.65a69.66,69.66,0,0,1,8.84-4.49c2.3-.83,7.25-.39,14.2-1.41-2.56-8.79-4.66-18.24-5.94-23.57-4.21-17.62-6.1-29.4-6.13-38.18,0-7.31,1-18.08,9.9-27.14,4.38-4.43,12.9-9.31,22.54-8.46,8.87.78,16.24,5.54,23.76,15.37C72.42,59.15,67.37,49.21,65,45.29a43,43,0,0,0-4-5.46,10.78,10.78,0,0,1-2.39-3.74,3.68,3.68,0,0,1,.29-2.9A6.34,6.34,0,0,1,63,30.4c6.54-1.89,15.33.14,18.77,2.42,5.45,3.62,6.68,13.93,6.95,18.2.53,8,1,15.26.88,32.06,0,3.86-.23,16.58-3,18.39a3,3,0,0,1-2.41.53c-2.21-.56-4-3.86-6.21-8a57,57,0,0,0-5.9-9.45C62.68,73.07,51.64,71.16,46,74.4c-4.08,2.37-5.87,6.45-6.9,10-2.71,9.22.7,32.4,7,54.18s15.3,46.7,16.38,49.8a156.26,156.26,0,0,0,21.37.35c5-.25,16.18-1.65,19.62-2.14,7.42-1.07,14.77-1.75,15.91,2.61.44,1.72-2.19,4.27-4.49,6.11l-.63.51c-2.54,2.09-5.71,4.69-16.73,7.19a95.07,95.07,0,0,1-11.87,1.77l-1.18.14c-3,.32-6.71.4-10,.48l-2.72.07c-1.35,0-2.42,0-3.43,0,4.33,9.13,11,22,18.52,32.21,7.82,10.61,14.61,15.72,20.26,15.26,5.86-.49,10.9-7.3,15.38-20.83,3.86-11.62,8.23-24.78,13-40.75,4.62-15.52,7.88-27.05,13.74-43.36-12.27,3.09-20.37,5.13-28.89,6.73-.52.09-1.11.21-1.76.34-6.14,1.2-16.43,3.21-19.9.44a3.15,3.15,0,0,1-1.25-2.44c0-2.08,1.77-4.21,2.56-5,4.46-4.67,8.7-7.88,15-8.36l1.09-.08a236.22,236.22,0,0,0,24.17-3.1c4.75-.91,8.95-2,13.4-3.17l1.28-.33c3.08-7.68,7.93-19.69,11.06-26.26,8.6-18.08,7.12-30.23,1.83-34.24-3.83-2.91-9.63-1.66-15.5,3.35a154.69,154.69,0,0,0-11.19,11.39c-1.64,1.86-3.1,3.59-4.4,5.11-1,1.17-1.83,2.16-2.5,2.93-1.33,1.51-6.36,6.58-7.77,7.88-3.07,2.87-5.58,4-7.45,3.26s-3-3.21-3.37-7.42a15.28,15.28,0,0,1,1-6.3,3.16,3.16,0,0,1,2.29-2c1.45-.51,3.44-1.2,6.78-6.79a115.82,115.82,0,0,1,9.1-11.69c11.66-14,27.29-22.2,39-18.47a23.93,23.93,0,0,1,14.59,12.37C193,75.63,192.44,93,183,113.59c-1.25,2.72-4.61,11.3-6.4,15.51,3.07-1.48,6.7-1.42,11.47-6.24,7.11-7.18,12.41-8.64,15.58-9.49,5.57-1.49,21-2.62,21-2.62s7.33-.36,9.39.65c1.24.61,1.52,1.57.74,2.58s-2.82,2.23-7.42,3.27c0,0-17.33,3.69-21.78,4.81-2,.53-2.52,1.79-2.33,2.48s1.72,1,3.13.73c4.37-.8,15.94-3.57,21.34-4.25,5.95-.75,10.18-1,10.47.94S234.44,125.67,230,127.13Z" data-v-6046ec97=""></path></svg>