<svg class="icon inline h-6 w-6 md:hidden mr-6" xmlns="http://www.w3.org/2000/svg" viewBox="0 0 40 40" data-v-44c94206=""><!----><g class="pointer-events-none" fill="black" data-v-44c94206=""><g data-v-44c94206=""><path d="M8.28,40A1.18,1.18,0,0,1,7.1,38.81V33.42a1.19,1.19,0,0,1,2.37,0v5.39A1.19,1.19,0,0,1,8.28,40Z"></path><path d="M8.23,22.18A1.18,1.18,0,0,1,7.05,21V1.19a1.19,1.19,0,0,1,2.37,0V21A1.18,1.18,0,0,1,8.23,22.18Z"></path><path d="M19.75,40a1.18,1.18,0,0,1-1.19-1.18v-25a1.19,1.19,0,1,1,2.37,0v25A1.18,1.18,0,0,1,19.75,40Z"></path><path d="M19.75,7.56a1.19,1.19,0,0,1-1.19-1.19V1.19a1.19,1.19,0,1,1,2.37,0V6.37A1.18,1.18,0,0,1,19.75,7.56Z"></path><path d="M31.74,40a1.19,1.19,0,0,1-1.19-1.19V26.14a1.19,1.19,0,1,1,2.37,0V38.81A1.18,1.18,0,0,1,31.74,40Z"></path><path d="M31.74,14.85a1.19,1.19,0,0,1-1.19-1.19V1.19a1.19,1.19,0,1,1,2.37,0V13.66A1.18,1.18,0,0,1,31.74,14.85Z"></path><path d="M8.27,34.61a4.89,4.89,0,1,1,4.88-4.89A4.89,4.89,0,0,1,8.27,34.61Zm0-7.4a2.52,2.52,0,1,0,2.51,2.51A2.52,2.52,0,0,0,8.27,27.21Z"></path><path d="M31.74,27.32a4.88,4.88,0,1,1,4.88-4.88A4.89,4.89,0,0,1,31.74,27.32Zm0-7.39a2.51,2.51,0,1,0,2.51,2.51A2.52,2.52,0,0,0,31.74,19.93Z"></path><path d="M19.75,15a4.89,4.89,0,1,1,4.88-4.89A4.9,4.9,0,0,1,19.75,15Zm0-7.4a2.51,2.51,0,1,0,2.51,2.51A2.52,2.52,0,0,0,19.75,7.56Z"></path></g></g></svg>