<svg class="icon inline h-6 w-6 mx-2" xmlns="http://www.w3.org/2000/svg" viewBox="0 0 40 40" data-v-44c94206=""><!----><g class="pointer-events-none" fill="black" data-v-44c94206=""><g data-v-44c94206=""><path d="M15.85,31.7A15.85,15.85,0,1,1,31.7,15.85,15.87,15.87,0,0,1,15.85,31.7Zm0-29.2A13.35,13.35,0,1,0,29.19,15.85,13.37,13.37,0,0,0,15.85,2.5Z"></path><path d="M36.32,40a3.69,3.69,0,0,1-2.61-1.08h0L26.83,32a3.7,3.7,0,0,1,0-5.21,3.78,3.78,0,0,1,5.21,0l6.88,6.88A3.69,3.69,0,0,1,36.32,40Zm-.84-2.84a1.18,1.18,0,0,0,1.67-1.68L30.27,28.6a1.2,1.2,0,0,0-1.67,0,1.18,1.18,0,0,0,0,1.67Z"></path><path d="M27.72,29a1.21,1.21,0,0,1-.88-.37l-1.56-1.55a1.25,1.25,0,1,1,1.77-1.77l1.55,1.56a1.24,1.24,0,0,1,0,1.76A1.21,1.21,0,0,1,27.72,29Z"></path></g></g></svg>